<mxfile host="app.diagrams.net" agent="Mozilla/5.0 (Windows NT 10.0; Win64; x64) AppleWebKit/537.36 (KHTML, like Gecko) Chrome/129.0.0.0 Safari/537.36" version="24.7.17">
  <diagram id="C5RBs43oDa-KdzZeNtuy" name="Page-1">
    <mxGraphModel dx="2400" dy="3885" grid="1" gridSize="10" guides="1" tooltips="1" connect="1" arrows="1" fold="1" page="1" pageScale="1" pageWidth="200" pageHeight="700" math="0" shadow="0">
      <root>
        <mxCell id="WIyWlLk6GJQsqaUBKTNV-0" />
        <mxCell id="WIyWlLk6GJQsqaUBKTNV-1" parent="WIyWlLk6GJQsqaUBKTNV-0" />
        <mxCell id="tHahOKPxvCsYrug98zH9-2" value="" style="rounded=0;orthogonalLoop=1;jettySize=auto;html=1;" parent="WIyWlLk6GJQsqaUBKTNV-1" source="WIyWlLk6GJQsqaUBKTNV-3" target="tHahOKPxvCsYrug98zH9-0" edge="1">
          <mxGeometry relative="1" as="geometry" />
        </mxCell>
        <mxCell id="WIyWlLk6GJQsqaUBKTNV-3" value="&lt;div style=&quot;&quot;&gt;&lt;font style=&quot;font-size: 16px;&quot;&gt;Eres Sophie una joven reservada y responsable que trabaja en el taller de sombreros heredado de su padre. Aunque crea hermosas piezas, te sientes como una persona común, sin grandes aspiraciones o aventuras&lt;/font&gt;&lt;br&gt;&lt;/div&gt;" style="rounded=1;whiteSpace=wrap;html=1;fontSize=12;glass=0;strokeWidth=1;shadow=0;fillColor=#cce5ff;strokeColor=#7EA6E0;align=center;" parent="WIyWlLk6GJQsqaUBKTNV-1" vertex="1">
          <mxGeometry x="-140" y="-2790" width="300" height="150" as="geometry" />
        </mxCell>
        <mxCell id="unTZaBpB1VAai0DOxp5j-6" style="rounded=0;orthogonalLoop=1;jettySize=auto;html=1;exitX=1;exitY=0.5;exitDx=0;exitDy=0;entryX=0;entryY=0.5;entryDx=0;entryDy=0;fillColor=#e3c800;strokeColor=#000000;" parent="WIyWlLk6GJQsqaUBKTNV-1" source="unTZaBpB1VAai0DOxp5j-1" target="unTZaBpB1VAai0DOxp5j-2" edge="1">
          <mxGeometry relative="1" as="geometry" />
        </mxCell>
        <mxCell id="qpTZinKkhhto3AtR0Ls4-20" style="rounded=0;orthogonalLoop=1;jettySize=auto;html=1;exitX=1;exitY=0.5;exitDx=0;exitDy=0;entryX=0;entryY=0.5;entryDx=0;entryDy=0;fillColor=#e3c800;strokeColor=#000000;" parent="WIyWlLk6GJQsqaUBKTNV-1" source="unTZaBpB1VAai0DOxp5j-1" target="unTZaBpB1VAai0DOxp5j-4" edge="1">
          <mxGeometry relative="1" as="geometry" />
        </mxCell>
        <mxCell id="unTZaBpB1VAai0DOxp5j-1" value="&lt;font style=&quot;font-size: 15px;&quot;&gt;&lt;font style=&quot;font-size: 15px;&quot;&gt;El día comienza&lt;/font&gt;&lt;span style=&quot;background-color: initial;&quot;&gt;&amp;nbsp;y te&amp;nbsp;&lt;/span&gt;&lt;/font&gt;&lt;div style=&quot;font-size: 15px;&quot;&gt;&lt;font style=&quot;font-size: 15px;&quot;&gt;&lt;span style=&quot;background-color: initial;&quot;&gt;sientes&amp;nbsp;&lt;/span&gt;&lt;span style=&quot;background-color: initial;&quot;&gt;inquieta, el aire&amp;nbsp;&lt;/span&gt;&lt;/font&gt;&lt;/div&gt;&lt;div style=&quot;font-size: 15px;&quot;&gt;&lt;font style=&quot;font-size: 15px;&quot;&gt;&lt;span style=&quot;background-color: initial;&quot;&gt;está distinto&lt;/span&gt;&lt;span style=&quot;background-color: initial;&quot;&gt;&amp;nbsp;¿Qué decidirás hacer&amp;nbsp;&lt;/span&gt;&lt;span style=&quot;background-color: initial;&quot;&gt;con&amp;nbsp;&lt;/span&gt;&lt;span style=&quot;background-color: initial;&quot;&gt;este&amp;nbsp;&lt;/span&gt;&lt;/font&gt;&lt;/div&gt;&lt;div style=&quot;font-size: 15px;&quot;&gt;&lt;font style=&quot;font-size: 15px;&quot;&gt;&lt;span style=&quot;background-color: initial;&quot;&gt;presentimiento&lt;/span&gt;&lt;span style=&quot;background-color: initial;&quot;&gt;?&lt;/span&gt;&lt;/font&gt;&lt;/div&gt;" style="rhombus;whiteSpace=wrap;html=1;fillColor=#ffff88;strokeColor=#36393d;" parent="WIyWlLk6GJQsqaUBKTNV-1" vertex="1">
          <mxGeometry x="-150" y="-2566" width="230" height="231" as="geometry" />
        </mxCell>
        <mxCell id="unTZaBpB1VAai0DOxp5j-11" value="" style="rounded=0;orthogonalLoop=1;jettySize=auto;html=1;fillColor=#60a917;strokeColor=#000000;entryX=0;entryY=0.5;entryDx=0;entryDy=0;" parent="WIyWlLk6GJQsqaUBKTNV-1" source="unTZaBpB1VAai0DOxp5j-2" target="qpTZinKkhhto3AtR0Ls4-0" edge="1">
          <mxGeometry relative="1" as="geometry">
            <mxPoint x="590" y="-2311.344827586207" as="targetPoint" />
          </mxGeometry>
        </mxCell>
        <mxCell id="unTZaBpB1VAai0DOxp5j-2" value="&lt;font style=&quot;font-size: 15px;&quot;&gt;Permanecer en la tienda, donde todo parece bajo control&lt;/font&gt;" style="ellipse;whiteSpace=wrap;html=1;fillColor=#cdeb8b;strokeColor=#36393d;" parent="WIyWlLk6GJQsqaUBKTNV-1" vertex="1">
          <mxGeometry x="192.87" y="-2543" width="190" height="90" as="geometry" />
        </mxCell>
        <mxCell id="unTZaBpB1VAai0DOxp5j-15" value="" style="rounded=0;orthogonalLoop=1;jettySize=auto;html=1;fillColor=#60a917;strokeColor=#000000;" parent="WIyWlLk6GJQsqaUBKTNV-1" source="unTZaBpB1VAai0DOxp5j-4" target="qpTZinKkhhto3AtR0Ls4-8" edge="1">
          <mxGeometry relative="1" as="geometry">
            <mxPoint x="589.9999999999999" y="-2154.55" as="targetPoint" />
          </mxGeometry>
        </mxCell>
        <mxCell id="unTZaBpB1VAai0DOxp5j-4" value="&lt;font style=&quot;font-size: 15px;&quot;&gt;Salir a descubrir lo que esconde la bulliciosa ciudad&lt;/font&gt;" style="ellipse;whiteSpace=wrap;html=1;fillColor=#cdeb8b;strokeColor=#36393d;" parent="WIyWlLk6GJQsqaUBKTNV-1" vertex="1">
          <mxGeometry x="191.25" y="-2436" width="183.75" height="90" as="geometry" />
        </mxCell>
        <mxCell id="tHahOKPxvCsYrug98zH9-7" value="" style="edgeStyle=orthogonalEdgeStyle;rounded=0;orthogonalLoop=1;jettySize=auto;html=1;exitX=1.014;exitY=0.513;exitDx=0;exitDy=0;exitPerimeter=0;" parent="WIyWlLk6GJQsqaUBKTNV-1" source="qpTZinKkhhto3AtR0Ls4-0" target="qpTZinKkhhto3AtR0Ls4-10" edge="1">
          <mxGeometry relative="1" as="geometry">
            <Array as="points">
              <mxPoint x="784" y="-2495" />
              <mxPoint x="790" y="-2495" />
              <mxPoint x="790" y="-2436" />
            </Array>
          </mxGeometry>
        </mxCell>
        <mxCell id="qpTZinKkhhto3AtR0Ls4-0" value="&lt;font style=&quot;font-size: 15px;&quot;&gt;Atiendes clientes como siempre. Entra a la tienda una señora que parece malvada, resulta ser una bruja&lt;/font&gt;" style="whiteSpace=wrap;html=1;rounded=1;fillColor=#dae8fc;strokeColor=#6c8ebf;" parent="WIyWlLk6GJQsqaUBKTNV-1" vertex="1">
          <mxGeometry x="430" y="-2538" width="255" height="80" as="geometry" />
        </mxCell>
        <mxCell id="tHahOKPxvCsYrug98zH9-9" value="" style="edgeStyle=orthogonalEdgeStyle;rounded=0;orthogonalLoop=1;jettySize=auto;html=1;" parent="WIyWlLk6GJQsqaUBKTNV-1" source="qpTZinKkhhto3AtR0Ls4-8" target="qpTZinKkhhto3AtR0Ls4-10" edge="1">
          <mxGeometry relative="1" as="geometry">
            <Array as="points">
              <mxPoint x="790" y="-2390" />
              <mxPoint x="790" y="-2436" />
            </Array>
          </mxGeometry>
        </mxCell>
        <mxCell id="qpTZinKkhhto3AtR0Ls4-8" value="&lt;font style=&quot;font-size: 15px;&quot;&gt;Eres acosada por soldados y rescatada por un misterioso mago. Son perseguidos por entes tenebrosos, el mago te deja en un lugar  que creías seguro..&lt;/font&gt;" style="rounded=1;whiteSpace=wrap;html=1;fillColor=#dae8fc;strokeColor=#6c8ebf;" parent="WIyWlLk6GJQsqaUBKTNV-1" vertex="1">
          <mxGeometry x="437.5" y="-2435" width="240" height="100" as="geometry" />
        </mxCell>
        <mxCell id="psG5TbMMK31iquj77_-c-0" style="rounded=0;orthogonalLoop=1;jettySize=auto;html=1;entryX=0.5;entryY=0;entryDx=0;entryDy=0;" parent="WIyWlLk6GJQsqaUBKTNV-1" source="qpTZinKkhhto3AtR0Ls4-10" target="tHahOKPxvCsYrug98zH9-6" edge="1">
          <mxGeometry relative="1" as="geometry" />
        </mxCell>
        <mxCell id="qpTZinKkhhto3AtR0Ls4-10" value="&lt;font style=&quot;font-size: 15px;&quot;&gt;Una bruja te hechiza, convirtiéndote en una anciana, incapaz de hablar sobre tu maldición.&amp;nbsp;&lt;/font&gt;" style="rounded=1;whiteSpace=wrap;html=1;fillColor=#dae8fc;strokeColor=#6c8ebf;" parent="WIyWlLk6GJQsqaUBKTNV-1" vertex="1">
          <mxGeometry x="740" y="-2520" width="220" height="107" as="geometry" />
        </mxCell>
        <mxCell id="qpTZinKkhhto3AtR0Ls4-127" style="rounded=0;orthogonalLoop=1;jettySize=auto;html=1;entryX=0.993;entryY=0.387;entryDx=0;entryDy=0;entryPerimeter=0;exitX=0;exitY=0.5;exitDx=0;exitDy=0;" parent="WIyWlLk6GJQsqaUBKTNV-1" source="qpTZinKkhhto3AtR0Ls4-119" target="qpTZinKkhhto3AtR0Ls4-126" edge="1">
          <mxGeometry relative="1" as="geometry">
            <mxPoint x="609" y="-1779" as="targetPoint" />
            <mxPoint x="580" y="-2237" as="sourcePoint" />
          </mxGeometry>
        </mxCell>
        <mxCell id="qpTZinKkhhto3AtR0Ls4-119" value="&lt;font style=&quot;font-size: 15px;&quot;&gt;Resignada al hechizo,&amp;nbsp;&lt;/font&gt;&lt;div style=&quot;font-size: 15px;&quot;&gt;&lt;font style=&quot;font-size: 15px;&quot;&gt;te instalas en un geriátrico, aceptando tu nuevo destino&lt;/font&gt;&lt;/div&gt;" style="ellipse;whiteSpace=wrap;html=1;fillColor=#cdeb8b;strokeColor=#36393d;" parent="WIyWlLk6GJQsqaUBKTNV-1" vertex="1">
          <mxGeometry x="470" y="-2290" width="230" height="90" as="geometry" />
        </mxCell>
        <mxCell id="qpTZinKkhhto3AtR0Ls4-135" value="" style="rounded=0;orthogonalLoop=1;jettySize=auto;html=1;" parent="WIyWlLk6GJQsqaUBKTNV-1" source="qpTZinKkhhto3AtR0Ls4-122" target="qpTZinKkhhto3AtR0Ls4-131" edge="1">
          <mxGeometry relative="1" as="geometry" />
        </mxCell>
        <mxCell id="qpTZinKkhhto3AtR0Ls4-122" value="&lt;font style=&quot;font-size: 15px;&quot;&gt;Partes hacia las&lt;/font&gt;&lt;div&gt;&lt;font style=&quot;font-size: 15px;&quot;&gt;&amp;nbsp;montañas en busca de una cura&lt;/font&gt;&lt;/div&gt;" style="ellipse;whiteSpace=wrap;html=1;fillColor=#cdeb8b;strokeColor=#36393d;" parent="WIyWlLk6GJQsqaUBKTNV-1" vertex="1">
          <mxGeometry x="520" y="-2180" width="180" height="70" as="geometry" />
        </mxCell>
        <mxCell id="qpTZinKkhhto3AtR0Ls4-126" value="&lt;div style=&quot;font-size: 15px;&quot;&gt;&lt;font style=&quot;font-size: 15px;&quot;&gt;&lt;span style=&quot;background-color: initial;&quot;&gt;Vivís&lt;/span&gt;&lt;span style=&quot;background-color: initial;&quot; class=&quot;ql-cursor&quot;&gt;﻿&lt;/span&gt;&lt;span style=&quot;background-color: initial;&quot;&gt; ahi un año y falleces, junto a tu gato&lt;/span&gt;&lt;br&gt;&lt;/font&gt;&lt;/div&gt;&lt;div style=&quot;font-size: 15px;&quot;&gt;&lt;br&gt;&lt;/div&gt;" style="shape=offPageConnector;whiteSpace=wrap;html=1;fillColor=#e51400;fontColor=#ffffff;strokeColor=#B20000;size=0.43703703703703706;" parent="WIyWlLk6GJQsqaUBKTNV-1" vertex="1">
          <mxGeometry x="300" y="-2280" width="120" height="95" as="geometry" />
        </mxCell>
        <mxCell id="qhFK7Kxd5ELtM_P0061G-3" value="" style="rounded=0;orthogonalLoop=1;jettySize=auto;html=1;" edge="1" parent="WIyWlLk6GJQsqaUBKTNV-1" source="qpTZinKkhhto3AtR0Ls4-131" target="qhFK7Kxd5ELtM_P0061G-2">
          <mxGeometry relative="1" as="geometry" />
        </mxCell>
        <mxCell id="qpTZinKkhhto3AtR0Ls4-131" value="&lt;font style=&quot;font-size: 15px;&quot;&gt;Encuentras un espantapájaros mágico que te guía a un castillo ambulante&lt;/font&gt;" style="rounded=1;whiteSpace=wrap;html=1;fillColor=#dae8fc;strokeColor=#6c8ebf;" parent="WIyWlLk6GJQsqaUBKTNV-1" vertex="1">
          <mxGeometry x="300" y="-2160" width="170" height="80" as="geometry" />
        </mxCell>
        <mxCell id="qpTZinKkhhto3AtR0Ls4-159" value="" style="rounded=0;orthogonalLoop=1;jettySize=auto;html=1;exitX=1;exitY=0.5;exitDx=0;exitDy=0;fillColor=#e3c800;strokeColor=#000000;entryX=-0.003;entryY=0.618;entryDx=0;entryDy=0;entryPerimeter=0;" parent="WIyWlLk6GJQsqaUBKTNV-1" source="qpTZinKkhhto3AtR0Ls4-156" target="qpTZinKkhhto3AtR0Ls4-158" edge="1">
          <mxGeometry relative="1" as="geometry">
            <mxPoint x="724" y="-1615" as="targetPoint" />
          </mxGeometry>
        </mxCell>
        <mxCell id="qpTZinKkhhto3AtR0Ls4-161" value="" style="rounded=0;orthogonalLoop=1;jettySize=auto;html=1;exitX=1;exitY=0.5;exitDx=0;exitDy=0;entryX=0;entryY=0.563;entryDx=0;entryDy=0;fillColor=#e3c800;strokeColor=#000000;entryPerimeter=0;" parent="WIyWlLk6GJQsqaUBKTNV-1" source="qpTZinKkhhto3AtR0Ls4-156" target="qpTZinKkhhto3AtR0Ls4-160" edge="1">
          <mxGeometry relative="1" as="geometry" />
        </mxCell>
        <mxCell id="qpTZinKkhhto3AtR0Ls4-156" value="&lt;font style=&quot;font-size: 15px;&quot;&gt;Howl te cuenta que&lt;/font&gt;&lt;div&gt;&lt;font style=&quot;font-size: 15px;&quot;&gt;&amp;nbsp;lo llamaron a la guerra&lt;/font&gt;&lt;/div&gt;&lt;div&gt;&lt;font style=&quot;font-size: 15px;&quot;&gt;&amp;nbsp;¿Qué consejo le das&lt;/font&gt;&lt;span style=&quot;font-size: 15px; background-color: initial;&quot;&gt;?&lt;/span&gt;&lt;/div&gt;" style="rhombus;whiteSpace=wrap;html=1;fillColor=#ffff88;strokeColor=#36393d;" parent="WIyWlLk6GJQsqaUBKTNV-1" vertex="1">
          <mxGeometry x="-112.86999999999999" y="-1987.5" width="199.74" height="180" as="geometry" />
        </mxCell>
        <mxCell id="qpTZinKkhhto3AtR0Ls4-163" value="" style="rounded=0;orthogonalLoop=1;jettySize=auto;html=1;" parent="WIyWlLk6GJQsqaUBKTNV-1" source="qpTZinKkhhto3AtR0Ls4-158" target="qpTZinKkhhto3AtR0Ls4-162" edge="1">
          <mxGeometry relative="1" as="geometry" />
        </mxCell>
        <mxCell id="qpTZinKkhhto3AtR0Ls4-158" value="&lt;font style=&quot;font-size: 15px;&quot;&gt;Que haga justicia en&amp;nbsp;&lt;/font&gt;&lt;div&gt;&lt;font style=&quot;font-size: 15px;&quot;&gt;la&amp;nbsp;&lt;/font&gt;&lt;span style=&quot;font-size: 15px; background-color: initial;&quot;&gt;guerra, ofreciéndole tu&amp;nbsp;&lt;/span&gt;&lt;/div&gt;&lt;div&gt;&lt;span style=&quot;font-size: 15px; background-color: initial;&quot;&gt;apoyo para luchar&lt;/span&gt;&lt;/div&gt;" style="ellipse;whiteSpace=wrap;html=1;fillColor=#cdeb8b;strokeColor=#36393d;" parent="WIyWlLk6GJQsqaUBKTNV-1" vertex="1">
          <mxGeometry x="143.25" y="-1997.5" width="208.5" height="95" as="geometry" />
        </mxCell>
        <mxCell id="qpTZinKkhhto3AtR0Ls4-165" value="" style="rounded=0;orthogonalLoop=1;jettySize=auto;html=1;" parent="WIyWlLk6GJQsqaUBKTNV-1" source="qpTZinKkhhto3AtR0Ls4-160" target="qpTZinKkhhto3AtR0Ls4-164" edge="1">
          <mxGeometry relative="1" as="geometry" />
        </mxCell>
        <mxCell id="qpTZinKkhhto3AtR0Ls4-160" value="&lt;font style=&quot;font-size: 15px;&quot;&gt;Que no se&amp;nbsp;&lt;/font&gt;&lt;div style=&quot;font-size: 15px;&quot;&gt;&lt;font style=&quot;font-size: 15px;&quot;&gt;involucre, advirtiéndole&amp;nbsp;&lt;/font&gt;&lt;/div&gt;&lt;div style=&quot;font-size: 15px;&quot;&gt;&lt;font style=&quot;font-size: 15px;&quot;&gt;sobre los peligros y las consecuencias de&lt;/font&gt;&lt;div style=&quot;&quot;&gt;&lt;font style=&quot;font-size: 15px;&quot;&gt;&amp;nbsp;luchar.&lt;/font&gt;&lt;/div&gt;&lt;/div&gt;" style="ellipse;whiteSpace=wrap;html=1;fillColor=#cdeb8b;strokeColor=#36393d;" parent="WIyWlLk6GJQsqaUBKTNV-1" vertex="1">
          <mxGeometry x="143.25" y="-1871.25" width="175" height="102.5" as="geometry" />
        </mxCell>
        <mxCell id="qhFK7Kxd5ELtM_P0061G-6" value="" style="rounded=0;orthogonalLoop=1;jettySize=auto;html=1;" edge="1" parent="WIyWlLk6GJQsqaUBKTNV-1" source="qpTZinKkhhto3AtR0Ls4-162" target="qhFK7Kxd5ELtM_P0061G-5">
          <mxGeometry relative="1" as="geometry" />
        </mxCell>
        <mxCell id="qpTZinKkhhto3AtR0Ls4-162" value="&lt;font style=&quot;font-size: 15px;&quot;&gt;Luego de participar en la guerra&amp;nbsp;Howl y tu se encuentran cara a cara con la bruja&lt;/font&gt;" style="rounded=1;whiteSpace=wrap;html=1;fillColor=#dae8fc;strokeColor=#ed2c2c;" parent="WIyWlLk6GJQsqaUBKTNV-1" vertex="1">
          <mxGeometry x="382.87" y="-1997.5" width="182.25" height="95" as="geometry" />
        </mxCell>
        <mxCell id="qhFK7Kxd5ELtM_P0061G-18" value="" style="rounded=0;orthogonalLoop=1;jettySize=auto;html=1;" edge="1" parent="WIyWlLk6GJQsqaUBKTNV-1" source="qpTZinKkhhto3AtR0Ls4-164" target="qhFK7Kxd5ELtM_P0061G-17">
          <mxGeometry relative="1" as="geometry" />
        </mxCell>
        <mxCell id="qpTZinKkhhto3AtR0Ls4-164" value="&lt;font style=&quot;font-size: 15px;&quot;&gt;Howl te cuenta que no quiere ir a la corte para rechazar la oferta&lt;/font&gt;" style="rounded=1;whiteSpace=wrap;html=1;fillColor=#dae8fc;strokeColor=#0000CC;" parent="WIyWlLk6GJQsqaUBKTNV-1" vertex="1">
          <mxGeometry x="365" y="-1863.75" width="185" height="95" as="geometry" />
        </mxCell>
        <mxCell id="qhFK7Kxd5ELtM_P0061G-12" value="" style="rounded=0;orthogonalLoop=1;jettySize=auto;html=1;exitX=1;exitY=0.5;exitDx=0;exitDy=0;entryX=-0.016;entryY=0.436;entryDx=0;entryDy=0;entryPerimeter=0;" edge="1" parent="WIyWlLk6GJQsqaUBKTNV-1" source="qhFK7Kxd5ELtM_P0061G-17" target="qpTZinKkhhto3AtR0Ls4-200">
          <mxGeometry relative="1" as="geometry">
            <mxPoint x="819.9965871033651" y="-1834.213560791153" as="sourcePoint" />
            <mxPoint x="882.71" y="-1840.0045561110292" as="targetPoint" />
          </mxGeometry>
        </mxCell>
        <mxCell id="qpTZinKkhhto3AtR0Ls4-188" style="edgeStyle=none;rounded=0;orthogonalLoop=1;jettySize=auto;html=1;exitX=0.75;exitY=1;exitDx=0;exitDy=0;" parent="WIyWlLk6GJQsqaUBKTNV-1" edge="1">
          <mxGeometry relative="1" as="geometry">
            <mxPoint x="609" y="-1235" as="sourcePoint" />
            <mxPoint x="609" y="-1235" as="targetPoint" />
          </mxGeometry>
        </mxCell>
        <mxCell id="qpTZinKkhhto3AtR0Ls4-200" value="&lt;font style=&quot;font-size: 15px;&quot;&gt;En la reunión aparece la bruja y la hechicera de la corte le quita los poderes, liberándote consecuentemente de&lt;/font&gt;&lt;div style=&quot;font-size: 15px;&quot;&gt;&lt;font style=&quot;font-size: 15px;&quot;&gt;&amp;nbsp;la maldición&lt;/font&gt;&lt;/div&gt;" style="shape=offPageConnector;whiteSpace=wrap;html=1;fillColor=#008a00;fontColor=#ffffff;strokeColor=#005700;size=0.29411764705882354;" parent="WIyWlLk6GJQsqaUBKTNV-1" vertex="1">
          <mxGeometry x="831" y="-1880" width="190.5" height="140" as="geometry" />
        </mxCell>
        <mxCell id="tHahOKPxvCsYrug98zH9-3" value="" style="rounded=0;orthogonalLoop=1;jettySize=auto;html=1;" parent="WIyWlLk6GJQsqaUBKTNV-1" source="tHahOKPxvCsYrug98zH9-0" target="tHahOKPxvCsYrug98zH9-1" edge="1">
          <mxGeometry relative="1" as="geometry" />
        </mxCell>
        <mxCell id="tHahOKPxvCsYrug98zH9-0" value="&lt;font style=&quot;font-size: 15px;&quot;&gt;La ciudad donde vives está llena de vida y magia, con hechiceros, castillos voladores y encantamientos. Pero prefieres la tranquilidad del taller, es tu refugio. Fuera de esas paredes, el mundo te parece demasiado impredecible&lt;/font&gt;" style="rounded=1;whiteSpace=wrap;html=1;fontSize=12;glass=0;strokeWidth=1;shadow=0;fillColor=#cce5ff;strokeColor=#7EA6E0;" parent="WIyWlLk6GJQsqaUBKTNV-1" vertex="1">
          <mxGeometry x="192.87" y="-2790" width="294" height="150" as="geometry" />
        </mxCell>
        <mxCell id="tHahOKPxvCsYrug98zH9-4" style="edgeStyle=orthogonalEdgeStyle;rounded=0;orthogonalLoop=1;jettySize=auto;html=1;exitX=1;exitY=0.5;exitDx=0;exitDy=0;" parent="WIyWlLk6GJQsqaUBKTNV-1" source="tHahOKPxvCsYrug98zH9-1" target="unTZaBpB1VAai0DOxp5j-1" edge="1">
          <mxGeometry relative="1" as="geometry" />
        </mxCell>
        <mxCell id="tHahOKPxvCsYrug98zH9-1" value="&lt;font style=&quot;font-size: 15px;&quot;&gt;Aunque estás rodeada por la bulliciosa vida de la ciudad y de tus hermanas, tu vida es solitaria. Sientes que tu lugar de observadora. En tu corazón, guardas el anhelo de algo más, aunque no te atreves a imaginar qué podría ser&lt;/font&gt;" style="rounded=1;whiteSpace=wrap;html=1;fontSize=12;glass=0;strokeWidth=1;shadow=0;fillColor=#cce5ff;strokeColor=#7EA6E0;" parent="WIyWlLk6GJQsqaUBKTNV-1" vertex="1">
          <mxGeometry x="530" y="-2780" width="270" height="150" as="geometry" />
        </mxCell>
        <mxCell id="DDcElULkbMWMPyxahOJU-0" value="" style="rounded=0;orthogonalLoop=1;jettySize=auto;html=1;exitX=0;exitY=0.5;exitDx=0;exitDy=0;entryX=1;entryY=0.5;entryDx=0;entryDy=0;" parent="WIyWlLk6GJQsqaUBKTNV-1" target="qpTZinKkhhto3AtR0Ls4-122" edge="1" source="tHahOKPxvCsYrug98zH9-6">
          <mxGeometry relative="1" as="geometry">
            <mxPoint x="225.5" y="-1887" as="sourcePoint" />
          </mxGeometry>
        </mxCell>
        <mxCell id="qhFK7Kxd5ELtM_P0061G-1" style="rounded=0;orthogonalLoop=1;jettySize=auto;html=1;exitX=0;exitY=0.5;exitDx=0;exitDy=0;" edge="1" parent="WIyWlLk6GJQsqaUBKTNV-1" source="tHahOKPxvCsYrug98zH9-6" target="qpTZinKkhhto3AtR0Ls4-119">
          <mxGeometry relative="1" as="geometry" />
        </mxCell>
        <mxCell id="tHahOKPxvCsYrug98zH9-6" value="&lt;div style=&quot;font-size: 15px;&quot;&gt;&lt;font style=&quot;font-size: 15px;&quot;&gt;En medio de la&lt;/font&gt;&lt;/div&gt;&lt;div style=&quot;font-size: 15px;&quot;&gt;&lt;font style=&quot;font-size: 15px;&quot;&gt;&amp;nbsp;desesperación&lt;/font&gt;&lt;/div&gt;&lt;div style=&quot;font-size: 15px;&quot;&gt;&lt;font style=&quot;font-size: 15px;&quot;&gt;&amp;nbsp;¿Qué decides hacer al respecto?&lt;/font&gt;&lt;/div&gt;" style="rhombus;whiteSpace=wrap;html=1;fillColor=#ffff88;strokeColor=#36393d;" parent="WIyWlLk6GJQsqaUBKTNV-1" vertex="1">
          <mxGeometry x="780" y="-2327.5" width="190" height="190" as="geometry" />
        </mxCell>
        <mxCell id="qhFK7Kxd5ELtM_P0061G-4" style="rounded=0;orthogonalLoop=1;jettySize=auto;html=1;entryX=0.5;entryY=0;entryDx=0;entryDy=0;exitX=0.5;exitY=1;exitDx=0;exitDy=0;" edge="1" parent="WIyWlLk6GJQsqaUBKTNV-1" source="qhFK7Kxd5ELtM_P0061G-10" target="qpTZinKkhhto3AtR0Ls4-156">
          <mxGeometry relative="1" as="geometry" />
        </mxCell>
        <mxCell id="qhFK7Kxd5ELtM_P0061G-11" value="" style="rounded=0;orthogonalLoop=1;jettySize=auto;html=1;" edge="1" parent="WIyWlLk6GJQsqaUBKTNV-1" source="qhFK7Kxd5ELtM_P0061G-2" target="qhFK7Kxd5ELtM_P0061G-10">
          <mxGeometry relative="1" as="geometry" />
        </mxCell>
        <mxCell id="qhFK7Kxd5ELtM_P0061G-2" value="&lt;font style=&quot;font-size: 15px;&quot;&gt;Te fascinas con el gran castillo mágico y sus criaturas&lt;/font&gt;" style="rounded=1;whiteSpace=wrap;html=1;fillColor=#dae8fc;strokeColor=#6c8ebf;" vertex="1" parent="WIyWlLk6GJQsqaUBKTNV-1">
          <mxGeometry x="110.17" y="-2160" width="153.13" height="80" as="geometry" />
        </mxCell>
        <mxCell id="qhFK7Kxd5ELtM_P0061G-16" style="rounded=0;orthogonalLoop=1;jettySize=auto;html=1;entryX=0;entryY=0.5;entryDx=0;entryDy=0;" edge="1" parent="WIyWlLk6GJQsqaUBKTNV-1" source="qhFK7Kxd5ELtM_P0061G-5" target="qhFK7Kxd5ELtM_P0061G-15">
          <mxGeometry relative="1" as="geometry" />
        </mxCell>
        <mxCell id="qhFK7Kxd5ELtM_P0061G-5" value="&lt;span style=&quot;font-size: 15px;&quot;&gt;Después de una larga batalla, matan a la bruja y llenan un vial con su sangre&amp;nbsp;&lt;/span&gt;" style="rounded=1;whiteSpace=wrap;html=1;fillColor=#dae8fc;strokeColor=#ed2c2c;" vertex="1" parent="WIyWlLk6GJQsqaUBKTNV-1">
          <mxGeometry x="618" y="-1997.5" width="182.25" height="95" as="geometry" />
        </mxCell>
        <mxCell id="qhFK7Kxd5ELtM_P0061G-10" value="&lt;font style=&quot;font-size: 15px;&quot;&gt;Desarrollas una relación cercana con Howl, el mago dueño del castillo&lt;/font&gt;" style="rounded=1;whiteSpace=wrap;html=1;fillColor=#dae8fc;strokeColor=#6c8ebf;" vertex="1" parent="WIyWlLk6GJQsqaUBKTNV-1">
          <mxGeometry x="-89.57" y="-2160" width="153.13" height="80" as="geometry" />
        </mxCell>
        <mxCell id="qhFK7Kxd5ELtM_P0061G-15" value="&lt;span style=&quot;font-size: 15px;&quot;&gt;Howl prepara una pócima curativa y libera a Sophie del hechizo&lt;/span&gt;" style="shape=offPageConnector;whiteSpace=wrap;html=1;fillColor=#008a00;fontColor=#ffffff;strokeColor=#005700;size=0.29411764705882354;" vertex="1" parent="WIyWlLk6GJQsqaUBKTNV-1">
          <mxGeometry x="860" y="-2032.5" width="190.5" height="140" as="geometry" />
        </mxCell>
        <mxCell id="qhFK7Kxd5ELtM_P0061G-17" value="&lt;span style=&quot;font-size: 15px;&quot;&gt;Le ofreces hacerlo en su lugar, yendo como su madre&lt;/span&gt;" style="rounded=1;whiteSpace=wrap;html=1;fillColor=#dae8fc;strokeColor=#0000CC;" vertex="1" parent="WIyWlLk6GJQsqaUBKTNV-1">
          <mxGeometry x="595" y="-1867.5" width="185" height="95" as="geometry" />
        </mxCell>
      </root>
    </mxGraphModel>
  </diagram>
</mxfile>
